<?xml version="1.0" encoding="UTF-8" standalone="no"?>
<svg width="22px" height="22px" viewBox="0 0 22 22" version="1.1" xmlns="http://www.w3.org/2000/svg" xmlns:xlink="http://www.w3.org/1999/xlink">
    <!-- Generator: Sketch 45.1 (43504) - http://www.bohemiancoding.com/sketch -->
    <title>icone-close</title>
    <desc>Created with Sketch.</desc>
    <defs></defs>
    <g id="Symbols" stroke="none" stroke-width="1" fill="none" fill-rule="evenodd">
        <g id="icone-close" fill="#1D1D1B" fill-rule="nonzero">
            <path d="M9.99616121,10.9116371 L0.717352393,20.1904459 C0.459571309,20.448227 0.459571309,20.865852 0.717352393,21.1236331 C0.84607916,21.2526874 1.01509446,21.316887 1.18378221,21.316887 C1.3527975,21.316887 1.52148525,21.2526874 1.65021202,21.1236331 L10.9987888,11.7750564 L20.3473655,21.1236331 C20.4764198,21.2526874 20.6451076,21.316887 20.8137953,21.316887 C20.9824831,21.316887 21.1514984,21.2526874 21.2802252,21.1236331 C21.5380062,20.865852 21.5380062,20.448227 21.2802252,20.1904459 L12.0017439,10.9116371 L21.2864486,1.62627733 C21.5442297,1.36849624 21.5442297,0.950871234 21.2864486,0.693090151 C21.0286675,0.435636616 20.6110425,0.435636616 20.353589,0.693090151 L10.9991163,10.0482179 L1.64366104,0.6934177 C1.38587996,0.435964165 0.968582496,0.435964165 0.710801413,0.6934177 C0.453020329,0.951198784 0.453020329,1.36882379 0.710801413,1.62660488 L9.99616121,10.9116371 Z"></path>
        </g>
    </g>
</svg>